<svg id="Layer_4" data-name="Layer 4" xmlns="http://www.w3.org/2000/svg" viewBox="0 0 500 500"><defs><style>.cls-1{fill:#fff;}</style></defs><path class="cls-1" d="M320.65,109c-10.55,20.75-13.28,35.34,0,37.28C333.94,144.36,331.2,129.77,320.65,109Z"/><path class="cls-1" d="M241.47,141.11c-3.93,7.73-6.84,14.65-8.37,20.49,5.75.47,11.52,1.23,17.27,2.28C249.07,157.6,245.92,149.87,241.47,141.11Z"/><path class="cls-1" d="M357.33,222.36c-.94,4.3-3.86,7-9.25,7.82-10.43-1.53-11.61-10.35-7-23.72a191.62,191.62,0,0,0-46.72-29l8.08-18.13c2.79-6.4-5.61-10.25-8.4-3.85l-8.24,18.44a195.21,195.21,0,0,0-35.4-10c2,9.61-.31,15.82-8.9,17.08-9.25-1.36-11.23-8.45-8.37-19.36-50.67-4.14-99.6,14.69-121.81,67.08,26.55-29.1,72.51-7,67,28.42,21-32.84,80.37-2.2,62.66,26.56l-39.15,91.75c-12.93,15.57-39,.85-30.63-18.39,2.62-4-4.86-8.92-7.49-4.93-11.92,31.66,25.53,52.76,46.64,28.08l39.17-92.9c8.48-33.91,70.78-15.18,62.44,26.47,25.87-32.29,74.9-9.48,67.58,28.64C398.8,297,386,254.67,357.33,222.36Z"/><path class="cls-1" d="M357.33,222.36c1.53-7-2.25-18.26-9.25-32a127.13,127.13,0,0,0-7,16.12A162.14,162.14,0,0,1,357.33,222.36Z"/></svg>