<?xml version="1.0" encoding="UTF-8"?>
<svg xmlns="http://www.w3.org/2000/svg" xmlns:xlink="http://www.w3.org/1999/xlink" width="277.42pt" height="281.95pt" viewBox="0 0 277.42 281.95" version="1.1">
<defs>
<clipPath id="clip1">
  <path d="M 0 43 L 277.421875 43 L 277.421875 281.949219 L 0 281.949219 Z M 0 43 "/>
</clipPath>
</defs>
<g id="surface1">
<path style=" stroke:none;fill-rule:nonzero;fill:rgb(100%,100%,100%);fill-opacity:1;" d="M 209.363281 -0.00390625 C 198.8125 20.746094 196.078125 35.332031 209.363281 37.273438 C 222.644531 35.332031 219.910156 20.746094 209.363281 -0.00390625 "/>
<path style=" stroke:none;fill-rule:nonzero;fill:rgb(100%,100%,100%);fill-opacity:1;" d="M 130.179688 32.085938 C 126.253906 39.8125 123.34375 46.738281 121.8125 52.570313 C 127.558594 53.039063 133.328125 53.804688 139.082031 54.851563 C 137.777344 48.574219 134.632813 40.847656 130.179688 32.085938 "/>
<g clip-path="url(#clip1)" clip-rule="nonzero">
<path style=" stroke:none;fill-rule:nonzero;fill:rgb(100%,100%,100%);fill-opacity:1;" d="M 246.035156 113.332031 C 245.097656 117.628906 242.179688 120.363281 236.792969 121.148438 C 226.363281 119.625 225.179688 110.800781 229.753906 97.433594 C 215.988281 85.71875 200.039063 75.902344 183.039063 68.414063 L 191.121094 50.285156 C 193.910156 43.878906 185.511719 40.027344 182.722656 46.433594 L 174.476563 64.871094 C 162.957031 60.421875 151.050781 57.023438 139.082031 54.851563 C 141.085938 64.464844 138.769531 70.671875 130.179688 71.929688 C 120.929688 70.578125 118.949219 63.484375 121.8125 52.570313 C 71.136719 48.433594 22.207031 67.261719 0 119.65625 C 26.554688 90.550781 72.511719 112.675781 67.042969 148.070313 C 88 115.230469 147.402344 145.867188 129.703125 174.632813 L 90.554688 266.378906 C 77.617188 281.949219 51.574219 267.230469 59.914063 247.996094 C 62.542969 244.007813 55.054688 239.074219 52.425781 243.058594 C 40.511719 274.71875 77.957031 295.824219 99.0625 271.144531 L 138.234375 178.246094 C 146.722656 144.335938 209.019531 163.0625 200.675781 204.714844 C 226.554688 172.421875 275.574219 195.230469 268.257813 233.355469 C 287.503906 187.945313 274.675781 145.640625 246.035156 113.332031 "/>
</g>
<path style=" stroke:none;fill-rule:nonzero;fill:rgb(100%,100%,100%);fill-opacity:1;" d="M 246.035156 113.332031 C 247.566406 106.300781 243.792969 95.074219 236.792969 81.308594 C 233.804688 87.191406 231.40625 92.605469 229.753906 97.433594 C 235.601563 102.40625 241.058594 107.71875 246.035156 113.332031 "/>
</g>
</svg>
