<svg xmlns="http://www.w3.org/2000/svg" viewBox="0 0 106.19 370.46"><defs><style>.cls-1,.cls-2{fill:none;stroke:#b1dfe3;stroke-miterlimit:10;}.cls-1{stroke-width:12px;}.cls-2{stroke-width:25px;}</style></defs><g id="Layer_2" data-name="Layer 2"><g id="Layer_3" data-name="Layer 3"><path class="cls-1" d="M52.45,6c-2.56.09-4.76,12.05-5.06,13.44C46,26,44.84,32.54,43.34,39,40.86,49.8,38.2,60.51,35.5,71.21c-5.81,23.07-11.36,46.2-16.07,69.52C11.5,180,5.92,220,6,260.1c.07,33.76,4.81,77.57,35.1,98.64,5.78,4,12.9,6.53,19.86,5.49,19.55-2.94,28.05-25.14,32.45-41.8,6.07-23,7.48-47.13,6.5-70.84-1.67-40.51-9-80.45-17.16-120.07C78.33,110.16,73.5,88.9,68.5,67.67c-4.23-18-8.62-35.89-13-53.83C55.2,12.49,54.43,5.93,52.45,6Z"/><path class="cls-2" d="M87.22,340.38l-68.59-52a8.39,8.39,0,0,1,2.05-14.52L82,250.22a8.39,8.39,0,0,0,.79-15.31L31.23,208.64a8.4,8.4,0,0,1,2.1-15.7l39-8.14a8.39,8.39,0,0,0,2.91-15.22L34.08,141.13a8.39,8.39,0,0,1-.43-13.71L63.08,99.61a8.39,8.39,0,0,0,.34-13.14L37.66,62.58"/></g></g></svg>